<svg id="Layer_1" enable-background="new 0 0 512 512" height="512" viewBox="0 0 512 512" width="512" xmlns="http://www.w3.org/2000/svg"><g><path d="m153.541 361.25c6.585 17.647 23.607 30.25 43.521 30.25h117.875c19.914 0 36.936-12.603 43.521-30.25z"/><path d="m314.938 421.75h-117.875c-25.605 0-46.438 20.832-46.438 46.438v28.812c0 8.284 6.716 15 15 15h180.75c8.284 0 15-6.716 15-15v-28.813c0-25.605-20.832-46.437-46.437-46.437z"/><path d="m331.313 91.325c-16.35 0-29.65 13.301-29.65 29.65s13.301 29.65 29.65 29.65 29.65-13.301 29.65-29.65-13.301-29.65-29.65-29.65z"/><path d="m150.5 90.25h30.25v30.25h-30.25z"/><path d="m399.875 0h-287.75c-28.604 0-51.875 23.271-51.875 51.875v227.5c0 28.604 23.271 51.875 51.875 51.875h287.75c28.604 0 51.875-23.271 51.875-51.875v-227.5c0-28.604-23.271-51.875-51.875-51.875zm-279.375 75.25c0-8.284 6.716-15 15-15h60.25c8.284 0 15 6.716 15 15v60.25c0 8.284-6.716 15-15 15h-60.25c-8.284 0-15-6.716-15-15zm15 105.5h60.25c8.284 0 15 6.716 15 15s-6.716 15-15 15h-60.25c-8.284 0-15-6.716-15-15s6.716-15 15-15zm-15 75.25c0-8.284 6.716-15 15-15h60.25c8.284 0 15 6.716 15 15s-6.716 15-15 15h-60.25c-8.284 0-15-6.716-15-15zm240.938-10.414h-60.25c-8.284 0-15-6.716-15-15s6.716-15 15-15h60.25c8.284 0 15 6.716 15 15s-6.716 15-15 15zm-30.125-64.961c-32.892 0-59.65-26.759-59.65-59.65s26.759-59.65 59.65-59.65 59.65 26.759 59.65 59.65-26.759 59.65-59.65 59.65z"/></g></svg>