<?xml version="1.0" standalone="no"?>
<!DOCTYPE svg PUBLIC "-//W3C//DTD SVG 20010904//EN"
 "http://www.w3.org/TR/2001/REC-SVG-20010904/DTD/svg10.dtd">
<svg version="1.0" xmlns="http://www.w3.org/2000/svg"
 width="990.000000pt" height="840.000000pt" viewBox="0 0 990.000000 840.000000"
 preserveAspectRatio="xMidYMid meet">
<metadata>
Created by potrace 1.16, written by Peter Selinger 2001-2019
</metadata>
<g transform="translate(0.000000,840.000000) scale(0.100000,-0.100000)"
fill="#000000" stroke="none">
<path d="M4715 7389 c-380 -36 -762 -173 -1086 -388 -282 -187 -493 -398 -681
-680 -530 -799 -530 -1843 1 -2642 187 -282 398 -493 680 -680 799 -532 1843
-532 2642 0 206 136 338 253 496 436 701 812 777 1994 184 2886 -188 283 -398
493 -680 681 -456 302 -1006 439 -1556 387z m685 -1200 c181 -29 325 -104 460
-239 165 -165 250 -365 250 -590 0 -225 -85 -425 -250 -590 -105 -105 -194
-162 -320 -204 -124 -41 -185 -46 -577 -46 l-373 0 0 -360 0 -360 -240 0 -240
0 0 1200 0 1200 613 0 c380 0 637 -4 677 -11z"/>
<path d="M4590 5360 l0 -360 363 0 c302 0 372 3 417 16 101 30 180 99 227 199
24 51 28 73 28 145 0 72 -4 94 -28 145 -36 78 -104 146 -181 182 l-61 28 -382
3 -383 3 0 -361z"/>
<path d="M1420 1401 l0 -401 85 0 85 0 0 145 0 145 93 0 c126 0 202 14 256 48
122 75 148 261 54 372 -69 80 -88 85 -345 88 l-228 3 0 -400z m405 237 c50
-23 71 -101 39 -147 -27 -37 -74 -51 -179 -51 l-95 0 0 105 0 105 105 0 c59 0
115 -5 130 -12z"/>
<path d="M3650 1660 c0 -77 -4 -140 -8 -140 -5 0 -19 11 -32 25 -32 34 -118
59 -173 50 -85 -15 -157 -71 -194 -153 -26 -58 -24 -233 3 -292 38 -82 106
-135 188 -146 64 -9 108 2 166 41 l50 34 0 -40 0 -39 75 0 75 0 0 400 0 400
-75 0 -75 0 0 -140z m-67 -211 c61 -31 67 -46 67 -151 0 -94 -1 -100 -26 -123
-37 -35 -94 -48 -143 -35 -122 33 -147 234 -38 300 36 22 106 26 140 9z"/>
<path d="M5930 1400 l0 -400 85 0 85 0 0 175 0 175 185 0 185 0 0 -175 0 -175
85 0 85 0 0 400 0 400 -85 0 -85 0 0 -155 0 -155 -185 0 -185 0 0 155 0 155
-85 0 -85 0 0 -400z"/>
<path d="M5248 1663 l-3 -78 -47 -3 -48 -3 0 -65 0 -64 50 0 50 0 0 -170 c0
-204 7 -231 72 -260 24 -11 61 -20 83 -20 47 0 112 16 120 31 4 5 -1 34 -10
64 -15 52 -16 54 -40 43 -19 -9 -29 -7 -50 6 -25 16 -25 17 -25 161 l0 145 55
0 55 0 0 65 0 65 -55 0 -55 0 0 80 0 80 -75 0 -74 0 -3 -77z"/>
<path d="M8187 1733 c-4 -3 -7 -39 -7 -80 l0 -73 -45 0 -45 0 0 -65 0 -65 44
0 43 0 5 -173 c5 -196 14 -227 78 -259 65 -33 218 -10 206 31 -3 9 -10 35 -16
58 -10 40 -12 42 -37 32 -65 -25 -83 16 -83 187 l0 124 60 0 60 0 0 65 0 64
-57 3 -58 3 -3 78 -3 77 -68 0 c-37 0 -71 -3 -74 -7z"/>
<path d="M2421 1585 c-24 -7 -61 -28 -82 -45 l-39 -31 0 36 0 35 -75 0 -75 0
0 -290 0 -290 75 0 75 0 0 193 c0 188 1 194 23 215 29 28 70 42 118 42 l39 0
0 75 c0 41 -3 75 -7 74 -5 0 -28 -6 -52 -14z"/>
<path d="M2767 1589 c-90 -21 -160 -78 -199 -164 -32 -70 -31 -190 1 -256 47
-99 134 -158 246 -167 176 -14 312 101 323 273 10 158 -69 272 -215 310 -63
17 -99 17 -156 4z m150 -149 c91 -55 91 -216 1 -283 -38 -28 -118 -28 -156 -1
-85 63 -82 241 6 288 39 22 111 20 149 -4z"/>
<path d="M4810 1587 c-90 -25 -154 -79 -192 -162 -32 -70 -32 -190 1 -258 31
-63 106 -129 171 -150 104 -34 223 -13 291 51 l40 37 -51 44 -51 43 -23 -21
c-48 -45 -134 -48 -192 -7 -32 23 -54 78 -54 136 0 57 15 93 55 130 23 22 36
25 95 25 58 0 72 -4 94 -24 l25 -24 51 43 51 43 -27 28 c-60 63 -189 93 -284
66z"/>
<path d="M7757 1590 c-47 -12 -89 -34 -106 -54 -20 -24 -31 -19 -31 14 l0 30
-75 0 -75 0 0 -290 0 -290 75 0 75 0 0 198 c0 193 1 199 23 219 56 51 137 59
184 19 l28 -24 3 -206 3 -206 75 0 74 0 0 213 c0 223 -7 274 -38 316 -41 56
-132 81 -215 61z"/>
<path d="M3950 1349 c0 -191 3 -237 16 -265 45 -94 207 -111 321 -34 l43 29 0
-39 0 -40 75 0 75 0 0 290 0 290 -75 0 -75 0 0 -194 0 -195 -26 -20 c-34 -27
-99 -44 -133 -36 -14 4 -36 16 -48 27 -22 21 -23 27 -23 220 l0 198 -75 0 -75
0 0 -231z"/>
<path d="M6790 1363 c0 -120 5 -234 10 -254 33 -117 215 -146 337 -53 l33 25
0 -40 0 -41 75 0 75 0 0 290 0 290 -75 0 -75 0 0 -193 c0 -216 2 -211 -74
-242 -51 -22 -109 -12 -136 22 -18 24 -20 41 -20 219 l0 194 -75 0 -75 0 0
-217z"/>
</g>
</svg>
