<?xml version="1.0" encoding="iso-8859-1"?>
<!-- Generator: Adobe Illustrator 16.0.0, SVG Export Plug-In . SVG Version: 6.00 Build 0)  -->
<!DOCTYPE svg PUBLIC "-//W3C//DTD SVG 1.1//EN" "http://www.w3.org/Graphics/SVG/1.1/DTD/svg11.dtd">
<svg version="1.1" id="Capa_1" xmlns="http://www.w3.org/2000/svg" xmlns:xlink="http://www.w3.org/1999/xlink" x="0px" y="0px"
	 width="556.669px" height="556.669px" viewBox="0 0 556.669 556.669" style="enable-background:new 0 0 556.669 556.669;"
	 xml:space="preserve">
<g>
	<g>
		<path d="M545.782,241.477l-45.257-60.229l-13.474-74.123c-4.178-23.003-22.545-40.669-45.696-43.957L366.76,52.584L304.829,9.699
			c-15.57-10.776-35.216-12.679-52.548-5.096c-3.837,1.675-7.477,3.801-10.843,6.33l-60.232,45.262l-74.125,13.474
			c-4.132,0.75-8.171,1.988-12.019,3.664C77.986,80.797,65.75,96.906,63.13,115.364l-10.579,74.588L9.655,251.9
			c-13.31,19.221-12.821,44.697,1.23,63.391l45.265,60.222l13.463,74.125c4.184,23.006,22.545,40.669,45.702,43.957l74.596,10.584
			l61.93,42.885c15.327,10.61,35.459,12.572,52.547,5.101c3.843-1.678,7.498-3.811,10.854-6.333l60.217-45.267l74.14-13.474
			c4.122-0.751,8.172-1.988,12.003-3.661c17.083-7.467,29.319-23.57,31.938-42.036l10.574-74.591l42.896-61.94
			C560.328,285.636,559.831,260.162,545.782,241.477z M278.338,476.408c-109.222,0-198.074-88.852-198.074-198.068
			c0-109.22,88.857-198.071,198.074-198.071c109.212,0,198.068,88.851,198.068,198.071
			C476.406,387.557,387.555,476.408,278.338,476.408z"/>
		<rect x="278.338" y="277.449" width="103.801" height="103.801"/>
		<rect x="174.537" y="173.654" width="103.801" height="103.795"/>
		<path d="M278.338,98.944c-98.913,0-179.391,80.473-179.391,179.396c0,98.912,80.479,179.396,179.391,179.396
			c98.923,0,179.391-80.484,179.391-179.396C457.729,179.417,377.261,98.944,278.338,98.944z M391.609,385.988
			c0,2.614-2.118,4.732-4.733,4.732H169.804c-2.62,0-4.738-2.118-4.738-4.732v-217.08c0-2.615,2.113-4.735,4.738-4.735h217.072
			c2.61,0,4.733,2.12,4.733,4.735V385.988z"/>
		<path d="M288.627,261.653c-0.073,0.122-0.161,0.259-0.238,0.381h0.238V261.653z"/>
	</g>
</g>
<g>
</g>
<g>
</g>
<g>
</g>
<g>
</g>
<g>
</g>
<g>
</g>
<g>
</g>
<g>
</g>
<g>
</g>
<g>
</g>
<g>
</g>
<g>
</g>
<g>
</g>
<g>
</g>
<g>
</g>
</svg>
